<?xml version="1.0" encoding="utf-8"?>
<!-- Generator: Adobe Illustrator 21.0.0, SVG Export Plug-In . SVG Version: 6.00 Build 0)  -->
<svg version="1.1" id="Layer_1" xmlns="http://www.w3.org/2000/svg" xmlns:xlink="http://www.w3.org/1999/xlink" x="0px" y="0px"
	 viewBox="0 0 242.5 242.5" enable-background="new 0 0 242.5 242.5" xml:space="preserve">
<path stroke="#FFFFFF" stroke-width="6.5" stroke-miterlimit="10" d="M71.9,84.9c-12.3,21.2-8.4,50.5,9.1,67.6
	c10.4,10.2,24.8,16,39.3,17.7c40.6,4.7,69.1-41.1,52.9-77.4C154.8,51.8,95.2,44.9,71.9,84.9z"/>
<polyline stroke="#FFFFFF" stroke-width="6.5" stroke-miterlimit="10" points="121.3,79.7 153.8,41.1 150,94 "/>
<polyline stroke="#FFFFFF" stroke-width="6.5" stroke-miterlimit="10" points="75.9,146.3 33.6,149 70.4,121.7 "/>
<polyline stroke="#FFFFFF" stroke-width="6.5" stroke-miterlimit="10" points="118.2,158.6 165.8,205.5 151,146.3 "/>
<polyline stroke="#FFFFFF" stroke-width="6.5" stroke-miterlimit="10" points="173.2,92.7 213.9,105.3 172.8,122.8 "/>
<polyline stroke="#FFFFFF" stroke-width="6.5" stroke-miterlimit="10" points="101.9,79.4 62.9,48.6 83.4,97.8 "/>
<polyline stroke="#FFFFFF" stroke-width="6.5" stroke-miterlimit="10" points="97.4,114.9 75.2,164.8 112.2,140.8 "/>
<g>
</g>
<g>
</g>
<g>
</g>
<g>
</g>
<g>
</g>
<g>
</g>
<g>
</g>
<g>
</g>
<g>
</g>
<g>
</g>
<g>
</g>
<g>
</g>
<g>
</g>
<g>
</g>
<g>
</g>
</svg>
