<?xml version="1.0" encoding="utf-8"?>
<!-- Generator: Adobe Illustrator 21.0.0, SVG Export Plug-In . SVG Version: 6.00 Build 0)  -->
<svg version="1.1" id="Layer_1" xmlns="http://www.w3.org/2000/svg" xmlns:xlink="http://www.w3.org/1999/xlink" x="0px" y="0px"
	 viewBox="0 0 421.8 9.8" enable-background="new 0 0 421.8 9.8" xml:space="preserve">
<path fill="#FFFFFF" d="M417.9,9.8h-7.8c-2.1,0-3.9-1.7-3.9-3.9s1.7-3.9,3.9-3.9h7.8c2.1,0,3.9,1.7,3.9,3.9S420.1,9.8,417.9,9.8z
	 M388.8,9.8H381c-2.1,0-3.9-1.7-3.9-3.9s1.7-3.9,3.9-3.9h7.7c2.1,0,3.9,1.7,3.9,3.9S390.9,9.8,388.8,9.8z M359.8,9.8H352
	c-2.1,0-3.9-1.7-3.9-3.9s1.7-3.9,3.9-3.9h7.7c2.1,0,3.9,1.7,3.9,3.9S361.9,9.8,359.8,9.8z M330.8,9.8H323c-2.1,0-3.9-1.7-3.9-3.9
	s1.7-3.9,3.9-3.9h7.7c2.1,0,3.9,1.7,3.9,3.9S332.9,9.8,330.8,9.8z M301.7,9.8H294c-2.1,0-3.9-1.7-3.9-3.9s1.7-3.9,3.9-3.9h7.7
	c2.1,0,3.9,1.7,3.9,3.9S303.9,9.8,301.7,9.8z M272.7,9.8H265c-2.1,0-3.9-1.7-3.9-3.9s1.7-3.9,3.9-3.9h7.7c2.1,0,3.9,1.7,3.9,3.9
	S274.9,9.8,272.7,9.8z M243.7,9.8H236c-2.1,0-3.9-1.7-3.9-3.9s1.7-3.9,3.9-3.9h7.7c2.1,0,3.9,1.7,3.9,3.9S245.9,9.8,243.7,9.8z
	 M214.7,9.8H207c-2.1,0-3.9-1.7-3.9-3.9s1.7-3.9,3.9-3.9h7.7c2.1,0,3.9,1.7,3.9,3.9S216.9,9.8,214.7,9.8z M185.7,9.8H178
	c-2.1,0-3.9-1.7-3.9-3.9s1.7-3.9,3.9-3.9h7.7c2.1,0,3.9,1.7,3.9,3.9S187.8,9.8,185.7,9.8z M156.7,9.8h-7.7c-2.1,0-3.9-1.7-3.9-3.9
	s1.7-3.9,3.9-3.9h7.7c2.1,0,3.9,1.7,3.9,3.9S158.8,9.8,156.7,9.8z M127.6,9.8H123c-0.9,0-2,0-3.1,0c-2.1,0-3.8-1.7-3.8-3.9
	c0-2.1,1.7-3.8,3.9-3.8c0,0,0,0,0,0c1.1,0,2.2,0,3.1,0h4.6c2.1,0,3.9,1.7,3.9,3.9S129.7,9.8,127.6,9.8z M98.6,9.5
	C98.6,9.5,98.5,9.5,98.6,9.5c-2.5,0-5.1-0.1-7.8-0.1c-2.1,0-3.8-1.8-3.8-3.9c0-2.1,1.8-3.8,3.9-3.8c2.7,0,5.2,0.1,7.7,0.1
	c2.1,0,3.8,1.8,3.8,3.9C102.4,7.9,100.7,9.5,98.6,9.5z M69.6,9.1C69.6,9.1,69.5,9.1,69.6,9.1l-7.8-0.1C59.7,8.9,58,7.1,58,5
	c0-2.1,1.8-3.8,3.9-3.8c0,0,0.1,0,0.1,0l7.7,0.1c2.1,0,3.8,1.8,3.8,3.9C73.4,7.4,71.7,9.1,69.6,9.1z M40.6,8.5
	C40.6,8.5,40.5,8.5,40.6,8.5l-7.8-0.2c-2.1,0-3.8-1.8-3.8-3.9c0-2.1,1.8-3.8,3.9-3.8c0,0,0.1,0,0.1,0l7.7,0.2c2.1,0,3.8,1.8,3.8,3.9
	C44.4,6.8,42.7,8.5,40.6,8.5z M11.6,7.9C11.6,7.9,11.5,7.9,11.6,7.9L3.8,7.7C1.6,7.7,0,5.9,0,3.8C0,1.6,1.8,0,3.9,0l7.7,0.2
	c2.1,0,3.8,1.8,3.8,3.9C15.4,6.2,13.7,7.9,11.6,7.9z"/>
<g>
</g>
<g>
</g>
<g>
</g>
<g>
</g>
<g>
</g>
<g>
</g>
<g>
</g>
<g>
</g>
<g>
</g>
<g>
</g>
<g>
</g>
<g>
</g>
<g>
</g>
<g>
</g>
<g>
</g>
</svg>
