<?xml version="1.0" encoding="utf-8"?>
<!-- Generator: Adobe Illustrator 21.0.0, SVG Export Plug-In . SVG Version: 6.00 Build 0)  -->
<svg version="1.1" id="Layer_1" xmlns="http://www.w3.org/2000/svg" xmlns:xlink="http://www.w3.org/1999/xlink" x="0px" y="0px"
	 viewBox="0 0 401.3 9.3" enable-background="new 0 0 401.3 9.3" xml:space="preserve">
<path fill="#FFFFFF" d="M397.7,9.3h-7.4c-2,0-3.7-1.6-3.7-3.7s1.6-3.7,3.7-3.7h7.4c2,0,3.7,1.6,3.7,3.7S399.7,9.3,397.7,9.3z
	 M369.9,9.3h-7.4c-2,0-3.7-1.6-3.7-3.7s1.6-3.7,3.7-3.7h7.4c2,0,3.7,1.6,3.7,3.7S371.9,9.3,369.9,9.3z M342.3,9.3h-7.4
	c-2,0-3.7-1.6-3.7-3.7s1.6-3.7,3.7-3.7h7.4c2,0,3.7,1.6,3.7,3.7S344.3,9.3,342.3,9.3z M314.7,9.3h-7.4c-2,0-3.7-1.6-3.7-3.7
	s1.6-3.7,3.7-3.7h7.4c2,0,3.7,1.6,3.7,3.7S316.7,9.3,314.7,9.3z M287.1,9.3h-7.4c-2,0-3.7-1.6-3.7-3.7s1.6-3.7,3.7-3.7h7.4
	c2,0,3.7,1.6,3.7,3.7S289.1,9.3,287.1,9.3z M259.5,9.3h-7.4c-2,0-3.7-1.6-3.7-3.7s1.6-3.7,3.7-3.7h7.4c2,0,3.7,1.6,3.7,3.7
	S261.5,9.3,259.5,9.3z M231.9,9.3h-7.4c-2,0-3.7-1.6-3.7-3.7s1.6-3.7,3.7-3.7h7.4c2,0,3.7,1.6,3.7,3.7S233.9,9.3,231.9,9.3z
	 M204.3,9.3h-7.4c-2,0-3.7-1.6-3.7-3.7s1.6-3.7,3.7-3.7h7.4c2,0,3.7,1.6,3.7,3.7S206.3,9.3,204.3,9.3z M176.7,9.3h-7.4
	c-2,0-3.7-1.6-3.7-3.7s1.6-3.7,3.7-3.7h7.4c2,0,3.7,1.6,3.7,3.7S178.7,9.3,176.7,9.3z M149.1,9.3h-7.4c-2,0-3.7-1.6-3.7-3.7
	s1.6-3.7,3.7-3.7h7.4c2,0,3.7,1.6,3.7,3.7S151.1,9.3,149.1,9.3z M121.4,9.3H117c-0.9,0-1.9,0-3,0c-2,0-3.7-1.7-3.7-3.7
	c0-2,1.7-3.7,3.7-3.7c0,0,0,0,0,0c1.1,0,2.1,0,2.9,0h4.4c2,0,3.7,1.6,3.7,3.7S123.4,9.3,121.4,9.3z M93.8,9.1
	C93.8,9.1,93.8,9.1,93.8,9.1C91.4,9,88.9,9,86.4,9c-2,0-3.6-1.7-3.6-3.7s1.7-3.6,3.7-3.6c2.5,0,5,0.1,7.4,0.1c2,0,3.6,1.7,3.6,3.7
	C97.4,7.5,95.8,9.1,93.8,9.1z M66.2,8.6C66.2,8.6,66.2,8.6,66.2,8.6l-7.4-0.1c-2,0-3.6-1.7-3.6-3.7c0-2,1.7-3.6,3.7-3.6l7.4,0.1
	c2,0,3.6,1.7,3.6,3.7C69.8,7,68.2,8.6,66.2,8.6z M38.6,8.1C38.6,8.1,38.6,8.1,38.6,8.1l-7.4-0.2c-2,0-3.6-1.7-3.6-3.7
	c0-2,1.7-3.6,3.7-3.6l7.4,0.1c2,0,3.6,1.7,3.6,3.7C42.3,6.5,40.6,8.1,38.6,8.1z M11,7.5C11,7.5,11,7.5,11,7.5L3.6,7.3
	C1.6,7.3,0,5.6,0,3.6S1.7,0,3.8,0l7.4,0.2c2,0,3.6,1.7,3.6,3.7C14.7,5.9,13,7.5,11,7.5z"/>
<g>
</g>
<g>
</g>
<g>
</g>
<g>
</g>
<g>
</g>
<g>
</g>
<g>
</g>
<g>
</g>
<g>
</g>
<g>
</g>
<g>
</g>
<g>
</g>
<g>
</g>
<g>
</g>
<g>
</g>
</svg>
