<?xml version="1.0" encoding="utf-8"?>
<!-- Generator: Adobe Illustrator 21.0.0, SVG Export Plug-In . SVG Version: 6.00 Build 0)  -->
<svg version="1.1" id="Layer_1" xmlns="http://www.w3.org/2000/svg" xmlns:xlink="http://www.w3.org/1999/xlink" x="0px" y="0px"
	 viewBox="0 0 311.3 311.3" enable-background="new 0 0 311.3 311.3" xml:space="preserve">
<g>
	<path fill="none" stroke="#FFFFFF" stroke-width="9.1062" stroke-miterlimit="10" d="M175.7,32.5c0,10.4-9.6,20.1-20,20.1
		c-10.4,0-18.9-8.4-18.9-18.9c0-10.4,6-22.3,16.4-22.3C163.6,11.5,175.7,22.1,175.7,32.5z"/>
	<path fill="#FFFFFF" d="M158.1,68.2h-4.9c-2.8,0-5-2.2-5-5V35.5c0-2.8,2.2-5,5-5h4.9c2.8,0,5,2.2,5,5v27.7
		C163.1,66,160.9,68.2,158.1,68.2z"/>
	<path fill="#FFFFFF" d="M201.8,98.9l-4.1-2.7c-2.3-1.5-2.9-4.6-1.4-6.9l19.3-25.1c1.5-2.3,4.6-2.9,6.9-1.4l4.1,2.7
		c2.3,1.5,4.6,9.8,3.1,12.1l-21,20C207.2,99.8,204.1,100.5,201.8,98.9z"/>
	<g>
		<g>
			<path fill="#FFFFFF" d="M155.6,62.3c-51.5,0-94.6,41.3-94.6,92.8s43.1,93.9,94.6,93.9c51.5,0,93.3-41.8,93.3-93.3
				C249,104.1,207.2,62.3,155.6,62.3z M145.7,233.5c-40.8,0-63.8-37.1-63.8-77.9s18.9-78.1,73.8-73.8c40.6,3.2,73.8,33,73.8,73.8
				S186.4,233.5,145.7,233.5z"/>
		</g>
	</g>
	<g>
		<circle fill="#FFFFFF" cx="155.6" cy="155.6" r="10.7"/>
	</g>
	<g>
		<path fill="#FFFFFF" d="M149.6,214.8c0-2.3,1.9-4.2,4.2-4.2l0,0c2.3,0,4.2,1.8,4.2,4.1l0,0c0,2.3-1.8,4.2-4.1,4.2l0,0c0,0,0,0,0,0
			l0,0C151.5,219,149.6,217.1,149.6,214.8z M125.1,208.8c-2-1.1-2.7-3.7-1.5-5.7l0,0c1.1-2,3.7-2.7,5.7-1.5l0,0
			c2,1.1,2.7,3.7,1.5,5.7l0,0c-0.8,1.3-2.2,2.1-3.6,2.1l0,0C126.5,209.4,125.8,209.2,125.1,208.8z M180.7,207.2
			c-1.2-2-0.5-4.5,1.5-5.7l0,0c2-1.1,4.5-0.5,5.7,1.5l0,0c1.1,2,0.5,4.5-1.5,5.7l0,0l0,0l0,0c-0.6,0.4-1.4,0.6-2.1,0.6l0,0
			C182.9,209.3,181.5,208.5,180.7,207.2z M101.6,188.5L101.6,188.5L101.6,188.5c-1.2-2-0.5-4.5,1.5-5.7l0,0c2-1.1,4.5-0.5,5.7,1.5
			l0,0c1.1,2,0.5,4.5-1.5,5.7l0,0c-0.7,0.4-1.4,0.6-2.1,0.6l0,0C103.8,190.6,102.4,189.8,101.6,188.5z M203.1,187.8
			c-2-1.1-2.7-3.7-1.5-5.7l0,0c1.1-2,3.7-2.7,5.7-1.5l0,0c2,1.1,2.7,3.7,1.5,5.7l0,0l0,0l0,0c-0.8,1.3-2.2,2.1-3.6,2.1l0,0
			C204.5,188.3,203.8,188.2,203.1,187.8z M94.3,155.9c0-2.3,1.8-4.2,4.1-4.2l0,0c2.3,0,4.2,1.8,4.2,4.1l0,0c0,2.3-1.8,4.2-4.1,4.2
			l0,0h0l0,0C96.2,160.1,94.3,158.2,94.3,155.9z M208.7,155.6c0-0.1,0-0.2,0-0.3l0,0c0-0.1,0-0.1,0-0.2l0,0c0-2.3,1.8-4.2,4.1-4.2
			l0,0c2.3,0,4.2,1.8,4.2,4.1l0,0l0,0l0,0c0,0.1,0,0.2,0,0.3l0,0c0,0.1,0,0.2,0,0.3l0,0c0,2.3-1.9,4.2-4.2,4.2l0,0
			C210.5,159.8,208.7,157.9,208.7,155.6z M102.9,128.9c-2-1.1-2.7-3.7-1.5-5.7l0,0c1.1-2,3.7-2.7,5.7-1.5l0,0c2,1.1,2.7,3.7,1.5,5.7
			l0,0c-0.8,1.3-2.2,2.1-3.6,2.1l0,0C104.3,129.5,103.6,129.3,102.9,128.9z M201.3,128.7L201.3,128.7c-1.2-2-0.5-4.5,1.5-5.7l0,0
			c2-1.2,4.5-0.5,5.7,1.5l0,0c1.2,2,0.5,4.5-1.5,5.7l0,0c-0.7,0.4-1.4,0.6-2.1,0.6l0,0C203.5,130.8,202.1,130.1,201.3,128.7z
			 M123.2,108.4c-1.2-2-0.5-4.5,1.5-5.7l0,0c2-1.2,4.5-0.5,5.7,1.5l0,0c1.2,2,0.5,4.5-1.5,5.7l0,0c-0.7,0.4-1.4,0.6-2.1,0.6l0,0
			C125.3,110.5,123.9,109.7,123.2,108.4z M181.8,109.5c-2-1.1-2.7-3.7-1.6-5.7l0,0c1.1-2,3.7-2.7,5.7-1.6l0,0c2,1.1,2.7,3.7,1.6,5.7
			l0,0c-0.8,1.3-2.2,2.1-3.6,2.1l0,0C183.1,110.1,182.4,109.9,181.8,109.5z M151.1,98.5c0-2.3,1.8-4.2,4.1-4.2l0,0
			c2.3,0,4.2,1.8,4.2,4.1l0,0c0,2.3-1.8,4.2-4.1,4.2l0,0h0l0,0C153,102.6,151.1,100.8,151.1,98.5z"/>
	</g>
	<path opacity="0.38" fill="#FFFFFF" d="M248.6,167c0-2.8-0.1-5.7-0.4-8.5l-75.4,89.2C216,241.5,248.6,212.5,248.6,167z"/>
	<path fill="#FFFFFF" d="M101.1,83.7h11.1L100.7,61c-1.5-2.3-9.6-0.8-11.9,0.7l-4,2.6c-2.3,1.5-3,4.7-1.4,7l17.8,24.1V83.7z"/>
</g>
<g>
</g>
<g>
</g>
<g>
</g>
<g>
</g>
<g>
</g>
<g>
</g>
</svg>
