<?xml version="1.0" encoding="utf-8"?>
<!-- Generator: Adobe Illustrator 21.0.0, SVG Export Plug-In . SVG Version: 6.00 Build 0)  -->
<svg version="1.1" id="Layer_1" xmlns="http://www.w3.org/2000/svg" xmlns:xlink="http://www.w3.org/1999/xlink" x="0px" y="0px"
	 viewBox="0 0 4.9 33.3" enable-background="new 0 0 4.9 33.3" xml:space="preserve">
<path fill="#FFFFFF" d="M1.8,33.3c-1,0-1.8-0.8-1.8-1.8V28c0-1,0.8-1.8,1.8-1.8S3.5,27,3.5,28v3.5C3.5,32.5,2.7,33.3,1.8,33.3z
	 M1.8,20c-1,0-1.8-0.8-1.8-1.8v-3.5c0-1,0.8-1.8,1.8-1.8s1.8,0.8,1.8,1.8v3.5C3.5,19.2,2.7,20,1.8,20z M2.5,6.8c-0.1,0-0.2,0-0.3,0
	c-1-0.2-1.6-1.1-1.4-2C0.9,3.8,1.1,3,1.2,2.4C1.4,1.3,1.7-0.1,3.3,0c0.5,0,1,0.3,1.3,0.7c0.3,0.4,0.4,0.9,0.3,1.4
	c0,0-0.3,1.5-0.6,3.2C4.1,6.2,3.4,6.8,2.5,6.8z"/>
<g>
</g>
<g>
</g>
<g>
</g>
<g>
</g>
<g>
</g>
<g>
</g>
<g>
</g>
<g>
</g>
<g>
</g>
<g>
</g>
<g>
</g>
<g>
</g>
<g>
</g>
<g>
</g>
<g>
</g>
</svg>
